# Blender 3.5.0
# www.blender.org
mtllib SpawnArea.mtl
g ModelSpawnArea_SpawnArea
v -0.500000 0.050000 0.500000
v -0.500000 0.050000 -0.500000
v 0.500000 0.050000 0.500000
v 0.500000 0.050000 -0.500000
v -0.463371 0.000000 0.463371
v -0.500000 0.036629 0.500000
v -0.481685 0.004907 0.481685
v -0.495093 0.018315 0.495093
v -0.463371 0.000000 -0.463371
v -0.500000 0.036629 -0.500000
v -0.481685 0.004907 -0.481685
v -0.495093 0.018315 -0.495093
v 0.463371 0.000000 0.463371
v 0.500000 0.036629 0.500000
v 0.481685 0.004907 0.481685
v 0.495093 0.018315 0.495093
v 0.463371 0.000000 -0.463371
v 0.500000 0.036629 -0.500000
v 0.481685 0.004907 -0.481685
v 0.495093 0.018315 -0.495093
vn -0.0000 -0.1191 0.9929
vn -0.0000 -0.0000 1.0000
vn 0.9929 -0.1191 -0.0000
vn 1.0000 -0.0000 -0.0000
vn -0.0000 -0.1191 -0.9929
vn -0.0000 -0.0000 -1.0000
vn -0.9929 -0.1191 -0.0000
vn -1.0000 -0.0000 -0.0000
vn -0.0000 1.0000 -0.0000
vn -0.0984 -0.9903 -0.0984
vn -0.0984 -0.9903 0.0984
vn -0.1316 -0.9825 0.1316
vn -0.1316 -0.9825 -0.1316
vn -0.7071 -0.7071 -0.0000
vn -0.9047 -0.4260 -0.0000
vn 0.0984 -0.9903 -0.0984
vn 0.1316 -0.9825 -0.1316
vn -0.0000 -0.7071 -0.7071
vn -0.0000 -0.4260 -0.9047
vn 0.0984 -0.9903 0.0984
vn 0.1316 -0.9825 0.1316
vn 0.7071 -0.7071 -0.0000
vn 0.9047 -0.4260 -0.0000
vn -0.0000 -0.7071 0.7071
vn -0.0000 -0.4260 0.9047
vt 0.625000 1.000000
vt 0.625000 0.000000
vt 0.875000 0.750000
vt 0.625000 0.250000
vt 0.875000 0.500000
vt 0.625000 0.750000
vt 0.625000 0.500000
vt 0.134157 0.740843
vt 0.558145 0.000000
vt 0.558145 1.000000
vt 0.129579 0.745421
vt 0.125000 0.748773
vt 0.375000 0.001227
vt 0.126227 0.750000
vt 0.375000 0.998773
vt 0.134157 0.509157
vt 0.558145 0.250000
vt 0.129579 0.504579
vt 0.125000 0.501227
vt 0.375000 0.248773
vt 0.126227 0.500000
vt 0.375000 0.251227
vt 0.365843 0.740843
vt 0.558145 0.750000
vt 0.370421 0.745421
vt 0.466573 0.748773
vt 0.373773 0.750000
vt 0.375000 0.751227
vt 0.365843 0.509157
vt 0.558145 0.500000
vt 0.370421 0.504579
vt 0.373773 0.500000
vt 0.375000 0.498773
vt 0.466573 0.501227
s 1
usemtl マテリアル
f 14/24/1 3/6/2 1/1/2 6/10/1
f 18/30/3 4/7/4 3/6/4 14/24/3
f 10/17/5 2/4/6 4/7/6 18/30/5
f 6/9/7 1/2/8 2/4/8 10/17/7
f 4/7/9 2/5/9 1/3/9 3/6/9
f 9/16/10 5/8/11 7/11/12 11/18/13
f 11/18/14 7/11/14 8/12/15 12/19/15
f 12/20/15 8/13/15 6/9/7 10/17/7
f 17/29/16 9/16/10 11/18/13 19/31/17
f 19/31/18 11/18/18 12/21/19 20/32/19
f 20/33/19 12/22/19 10/17/5 18/30/5
f 13/23/20 17/29/16 19/31/17 15/25/21
f 15/25/22 19/31/22 20/34/23 16/26/23
f 16/26/23 20/34/23 18/30/3 14/24/3
f 5/8/11 13/23/20 15/25/21 7/11/12
f 7/11/24 15/25/24 16/27/25 8/14/25
f 8/15/25 16/28/25 14/24/1 6/10/1
f 9/16/10 17/29/16 13/23/20 5/8/11
